REM DIRINDEX 1\2,1\3,1\4,1\5,1\6
REM DIRNAME cjc129,folder01,folder02,folder03,folder04,folder05
TITLE ""
FILE "DISC2Track26.mp3" MP3
  TRACK 01 AUDIO
    TITLE "0:"
    INDEX 01 00:00:00
  TRACK 02 AUDIO
    TITLE "3:cjc129_1740"
    INDEX 01 00:00:05
  TRACK 03 AUDIO
    TITLE "0:"
    INDEX 01 00:01:05
  TRACK 04 AUDIO
    TITLE "5:cjc129_1741"
    INDEX 01 00:02:55
  TRACK 05 AUDIO
    TITLE "0:"
    INDEX 01 00:08:30
  TRACK 06 AUDIO
    TITLE "4:cjc129_1742"
    INDEX 01 00:09:20
  TRACK 07 AUDIO
    TITLE "0:"
    INDEX 01 00:10:21
  TRACK 08 AUDIO
    TITLE "6:cjc129_1743"
    INDEX 01 00:10:55
  TRACK 09 AUDIO
    TITLE "0:"
    INDEX 01 00:15:38
  TRACK 10 AUDIO
    TITLE "3:cjc129_1744"
    INDEX 01 00:17:14
  TRACK 11 AUDIO
    TITLE "0:"
    INDEX 01 00:18:17
  TRACK 12 AUDIO
    TITLE "5:cjc129_1745"
    INDEX 01 00:19:48
  TRACK 13 AUDIO
    TITLE "0:"
    INDEX 01 00:22:32
  TRACK 14 AUDIO
    TITLE "4:cjc129_1746"
    INDEX 01 00:23:20
  TRACK 15 AUDIO
    TITLE "0:"
    INDEX 01 00:24:20
  TRACK 16 AUDIO
    TITLE "6:cjc129_1747"
    INDEX 01 00:24:55
  TRACK 17 AUDIO
    TITLE "0:"
    INDEX 01 00:29:68
  TRACK 18 AUDIO
    TITLE "3:cjc129_1748"
    INDEX 01 00:31:45
  TRACK 19 AUDIO
    TITLE "0:"
    INDEX 01 00:32:54
  TRACK 20 AUDIO
    TITLE "5:cjc129_1749"
    INDEX 01 00:34:30
  TRACK 21 AUDIO
    TITLE "0:"
    INDEX 01 00:36:56
  TRACK 22 AUDIO
    TITLE "4:cjc129_1750"
    INDEX 01 00:37:50
  TRACK 23 AUDIO
    TITLE "0:"
    INDEX 01 00:38:59
  TRACK 24 AUDIO
    TITLE "6:cjc129_1751"
    INDEX 01 00:39:19
  TRACK 25 AUDIO
    TITLE "0:"
    INDEX 01 00:43:23
  TRACK 26 AUDIO
    TITLE "3:cjc129_1752"
    INDEX 01 00:44:71
  TRACK 27 AUDIO
    TITLE "0:"
    INDEX 01 00:46:06
  TRACK 28 AUDIO
    TITLE "5:cjc129_1753"
    INDEX 01 00:47:38
  TRACK 29 AUDIO
    TITLE "0:"
    INDEX 01 00:50:42
  TRACK 30 AUDIO
    TITLE "4:cjc129_1754"
    INDEX 01 00:51:34
  TRACK 31 AUDIO
    TITLE "0:"
    INDEX 01 00:52:41
  TRACK 32 AUDIO
    TITLE "6:cjc129_1755"
    INDEX 01 00:53:02
  TRACK 33 AUDIO
    TITLE "0:"
    INDEX 01 00:57:17
  TRACK 34 AUDIO
    TITLE "3:cjc129_1756"
    INDEX 01 00:58:66
  TRACK 35 AUDIO
    TITLE "0:"
    INDEX 01 01:00:02
  TRACK 36 AUDIO
    TITLE "5:cjc129_1757"
    INDEX 01 01:01:46
  TRACK 37 AUDIO
    TITLE "0:"
    INDEX 01 01:06:18
  TRACK 38 AUDIO
    TITLE "4:cjc129_1758"
    INDEX 01 01:07:08
  TRACK 39 AUDIO
    TITLE "0:"
    INDEX 01 01:08:17
  TRACK 40 AUDIO
    TITLE "6:cjc129_1759"
    INDEX 01 01:08:48
  TRACK 41 AUDIO
    TITLE "0:"
    INDEX 01 01:14:02
  TRACK 42 AUDIO
    TITLE "3:cjc129_1760"
    INDEX 01 01:15:50
  TRACK 43 AUDIO
    TITLE "0:"
    INDEX 01 01:16:61
  TRACK 44 AUDIO
    TITLE "5:cjc129_1761"
    INDEX 01 01:18:15
  TRACK 45 AUDIO
    TITLE "0:"
    INDEX 01 01:21:00
  TRACK 46 AUDIO
    TITLE "4:cjc129_1762"
    INDEX 01 01:21:67
  TRACK 47 AUDIO
    TITLE "0:"
    INDEX 01 01:23:03
  TRACK 48 AUDIO
    TITLE "6:cjc129_1763"
    INDEX 01 01:23:34
  TRACK 49 AUDIO
    TITLE "0:"
    INDEX 01 01:27:71
  TRACK 50 AUDIO
    TITLE "3:cjc129_1764"
    INDEX 01 01:29:48
  TRACK 51 AUDIO
    TITLE "0:"
    INDEX 01 01:30:56
  TRACK 52 AUDIO
    TITLE "5:cjc129_1765"
    INDEX 01 01:32:27
  TRACK 53 AUDIO
    TITLE "0:"
    INDEX 01 01:34:50
  TRACK 54 AUDIO
    TITLE "4:cjc129_1766"
    INDEX 01 01:35:41
  TRACK 55 AUDIO
    TITLE "0:"
    INDEX 01 01:36:50
  TRACK 56 AUDIO
    TITLE "6:cjc129_1767"
    INDEX 01 01:37:05
  TRACK 57 AUDIO
    TITLE "0:"
    INDEX 01 01:41:42
  TRACK 58 AUDIO
    TITLE "3:cjc129_1768"
    INDEX 01 01:43:15
  TRACK 59 AUDIO
    TITLE "0:"
    INDEX 01 01:44:24
  TRACK 60 AUDIO
    TITLE "5:cjc129_1769"
    INDEX 01 01:45:57
  TRACK 61 AUDIO
    TITLE "0:"
    INDEX 01 01:51:30
  TRACK 62 AUDIO
    TITLE "4:cjc129_1770"
    INDEX 01 01:52:22
  TRACK 63 AUDIO
    TITLE "0:"
    INDEX 01 01:53:29
  TRACK 64 AUDIO
    TITLE "6:cjc129_1771"
    INDEX 01 01:53:61
  TRACK 65 AUDIO
    TITLE "0:"
    INDEX 01 01:58:42
  TRACK 66 AUDIO
    TITLE "3:cjc129_1772"
    INDEX 01 02:00:18
  TRACK 67 AUDIO
    TITLE "0:"
    INDEX 01 02:01:23
  TRACK 68 AUDIO
    TITLE "5:cjc129_1773"
    INDEX 01 02:02:69
  TRACK 69 AUDIO
    TITLE "0:"
    INDEX 01 02:04:62
  TRACK 70 AUDIO
    TITLE "4:cjc129_1774"
    INDEX 01 02:05:52
  TRACK 71 AUDIO
    TITLE "0:"
    INDEX 01 02:06:59
  TRACK 72 AUDIO
    TITLE "6:cjc129_1775"
    INDEX 01 02:07:16
  TRACK 73 AUDIO
    TITLE "0:"
    INDEX 01 02:10:59
  TRACK 74 AUDIO
    TITLE "3:cjc129_1776"
    INDEX 01 02:12:35
  TRACK 75 AUDIO
    TITLE "0:"
    INDEX 01 02:13:44
  TRACK 76 AUDIO
    TITLE "5:cjc129_1777"
    INDEX 01 02:14:71
  TRACK 77 AUDIO
    TITLE "0:"
    INDEX 01 02:16:50
  TRACK 78 AUDIO
    TITLE "4:cjc129_1778"
    INDEX 01 02:17:42
  TRACK 79 AUDIO
    TITLE "0:"
    INDEX 01 02:18:51
  TRACK 80 AUDIO
    TITLE "6:cjc129_1779"
    INDEX 01 02:19:05
  TRACK 81 AUDIO
    TITLE "0:"
    INDEX 01 02:22:29
